# xmcd
#
# Track frame offsets:
#	150
#	16480
#	35103
#	52112
#	64872
#	80496
#	93315
#	105541
#	113174
#	128729
#	154224
#	168616
#	172327
#	177031
#	190330
#	211874
#	229449
#	247969
#	267900
#	281613
#	300232
#	314313
#
# Disc length: 4247
#
# Revision: 1
# Processed by: cddbd v1.5.2PL0 Copyright (c) Steve Scherf et al.
# Submitted via: dBpowerAMP V4.0
# Normalized: r0:TDELIM( - )
#
DISCID=38109516
DTITLE=inst - The Great Australian country 3
DYEAR=2002
DGENRE=Country
TTITLE0=Peter Allen - I Still Call Australia Home
TTITLE1=Trad - Wild Colonial Boy
TTITLE2=Parsons - A Pub With No Beer
TTITLE3=Alexander - Duncan
TTITLE4=John Williamson - True Blue
TTITLE5=Trad - Click Go The Shears
TTITLE6=Rolf Harris - Tie Me Kangaroo Down Sport
TTITLE7=Trad - Along The Road To Gundagai
TTITLE8=Max Diamond/Charlie Drake - My Boomerang Won't Come Back
TTITLE9=Bogle - And The Band Played Waltzing Matilda
TTITLE10=A.B. Paterson - Waltzing Matilda
TTITLE11=P.D. McCormick - Advance Australia Fair
TTITLE12=Waltzing Matilda - instrumental
TTITLE13=Wild Colonial Boy - instrumental
TTITLE14=The Flying Pieman - instrumental
TTITLE15=Dick Pigs Melody - instrumental
TTITLE16=Waves Of Bondi Medley - instrumental
TTITLE17=Heel and Toe Polka Medley - instrumental
TTITLE18=Click Go The Shearrs - instrumental
TTITLE19=Queensland backstep Medley - instrumental
TTITLE20=Gollopede Medley - instrumental
TTITLE21=Advance Australia Fair - instrumental
EXTD=
EXTT0=
EXTT1=
EXTT2=
EXTT3=
EXTT4=
EXTT5=
EXTT6=
EXTT7=
EXTT8=
EXTT9=
EXTT10=
EXTT11=
EXTT12=
EXTT13=
EXTT14=
EXTT15=
EXTT16=
EXTT17=
EXTT18=
EXTT19=
EXTT20=
EXTT21=
PLAYORDER=
